<svg width="33" height="33" viewBox="0 0 33 33" fill="none" xmlns="http://www.w3.org/2000/svg">
<path d="M14.5941 4.81205C14.6817 4.72237 14.7863 4.65115 14.9019 4.60259C15.0174 4.55403 15.1416 4.52911 15.2669 4.5293C15.3922 4.52949 15.5163 4.55479 15.6317 4.60371C15.7471 4.65263 15.8515 4.72417 15.9388 4.81411L26.6267 15.7804C26.8144 15.973 26.9195 16.2313 26.9195 16.5002C26.9195 16.7692 26.8144 17.0275 26.6267 17.22L15.9388 28.1864C15.8514 28.2762 15.7468 28.3475 15.6314 28.3963C15.5159 28.445 15.3918 28.4701 15.2665 28.4701C15.1411 28.4701 15.017 28.445 14.9016 28.3963C14.7861 28.3475 14.6815 28.2762 14.5941 28.1864C14.4142 28.0022 14.3135 27.7549 14.3135 27.4975C14.3135 27.24 14.4142 26.9928 14.5941 26.8086L24.6446 16.5002L14.5941 6.18773C14.4148 6.00365 14.3145 5.75685 14.3145 5.49989C14.3145 5.24293 14.4148 4.99613 14.5941 4.81205ZM6.34409 4.81205C6.43166 4.72237 6.53632 4.65115 6.65188 4.60259C6.76743 4.55403 6.89155 4.52911 7.0169 4.5293C7.14224 4.52949 7.26628 4.55479 7.38169 4.60371C7.49709 4.65263 7.60153 4.72417 7.68883 4.81411L18.3767 15.7804C18.5644 15.973 18.6695 16.2313 18.6695 16.5002C18.6695 16.7692 18.5644 17.0275 18.3767 17.22L7.68883 28.1864C7.60139 28.2762 7.49685 28.3475 7.38136 28.3963C7.26588 28.445 7.14181 28.4701 7.01646 28.4701C6.89111 28.4701 6.76704 28.445 6.65156 28.3963C6.53607 28.3475 6.43153 28.2762 6.34409 28.1864C6.16419 28.0022 6.06348 27.7549 6.06348 27.4975C6.06348 27.24 6.16419 26.9928 6.34409 26.8086L16.3946 16.5002L6.34409 6.18773C6.16481 6.00365 6.06448 5.75685 6.06448 5.49989C6.06448 5.24293 6.16481 4.99613 6.34409 4.81205Z" fill="#616568"/>
</svg>
