<svg width="1180" height="278" viewBox="0 0 1180 278" fill="none" xmlns="http://www.w3.org/2000/svg">
<path d="M222.533 141.784C222.464 138.637 221.44 135.596 219.602 133.089C217.765 130.582 215.208 128.736 212.291 127.809L201.094 124.235L211.527 90.0565L206.61 89.2477C195.455 87.4127 185.437 90.3376 176.836 97.9421C170.636 103.423 166.428 110.311 163.826 115.635C156.193 118.55 148.798 123.557 141.818 130.542C135.936 136.427 130.323 143.735 125.135 152.261C116.369 166.667 111.861 179.499 111.673 180.038L107.077 195.087L115.321 197.719L119.834 182.933C120.605 180.779 137.814 133.74 168.257 123.455L170.041 122.852L170.839 121.1C174.97 112.028 184.031 97.759 200.165 97.6345L190.253 130.107L209.695 136.313C210.888 136.69 211.935 137.444 212.688 138.467C213.44 139.491 213.861 140.734 213.891 142.02C214.123 153.077 215.948 167.402 222.954 176.097L217.181 185.491C215.145 188.848 212.066 191.4 208.448 192.728C204.83 194.057 200.887 194.083 197.265 192.803C189.948 190.216 181.956 188.756 173.511 188.461L170.212 188.345L162.73 212.853L170.976 215.485L176.454 197.538C182.576 197.969 188.614 199.208 194.422 201.224C199.886 203.14 205.827 203.097 211.283 201.1C216.738 199.104 221.388 195.272 224.478 190.225L234.08 174.601L231.243 172.105C225.938 167.436 222.845 156.668 222.533 141.784Z" fill="#F2FAFF"/>
<path d="M162.996 218C148.996 218 136.129 214.6 124.396 207.8C112.663 200.867 103.329 191.4 96.3961 179.4C89.5961 167.267 86.1961 153.667 86.1961 138.6C86.1961 124.067 89.7295 110.8 96.7961 98.8C103.996 86.8 113.529 77.3333 125.396 70.4C137.396 63.4667 150.129 60 163.596 60C172.929 60 180.329 60.8667 185.796 62.6C191.263 64.2 197.596 67.0667 204.796 71.2V78.6C197.996 73.9333 191.663 70.6667 185.796 68.8C180.063 66.8 172.863 65.8 164.196 65.8C150.996 65.8 138.929 69.2 127.996 76C117.196 82.6667 108.596 91.6667 102.196 103C95.9295 114.2 92.7961 126.267 92.7961 139.2C92.7961 152.267 95.9961 164.4 102.396 175.6C108.796 186.8 117.263 195.733 127.796 202.4C138.463 208.933 149.929 212.2 162.196 212.2C170.996 212.2 178.663 211.2 185.196 209.2C191.729 207.067 198.263 203.8 204.796 199.4V206.8C198.396 210.667 191.796 213.467 184.996 215.2C178.329 217.067 170.996 218 162.996 218ZM393.621 214H386.621L358.221 156.8H278.621L250.821 214H243.821L318.621 60.4L393.621 214ZM355.821 151L318.221 74.8L281.421 151H355.821ZM442.901 69.8H408.301V64H483.701V69.8H449.501V214H442.901V69.8ZM547.265 216.6C538.598 216.6 530.598 214.533 523.265 210.4C516.065 206.267 510.332 200.6 506.065 193.4C501.798 186.2 499.665 178.067 499.665 169C499.665 160.6 501.798 152.867 506.065 145.8C510.332 138.6 516.132 132.867 523.465 128.6C530.932 124.333 539.132 122.2 548.065 122.2C555.532 122.2 561.932 123.4 567.265 125.8C572.598 128.2 577.798 131.933 582.865 137V147.8C578.465 141.267 573.532 136.333 568.065 133C562.732 129.533 556.065 127.8 548.065 127.8C540.732 127.8 533.798 129.733 527.265 133.6C520.865 137.333 515.732 142.4 511.865 148.8C507.998 155.2 506.065 162.067 506.065 169.4C506.065 177.4 507.932 184.6 511.665 191C515.398 197.267 520.398 202.2 526.665 205.8C533.065 209.267 539.932 211 547.265 211C562.198 211 574.065 204.267 582.865 190.8V201.6C578.065 206.667 572.732 210.467 566.865 213C561.132 215.4 554.598 216.6 547.265 216.6ZM620.568 64H626.968V142.6C629.768 136.6 634.501 131.667 641.168 127.8C647.968 123.8 654.835 121.8 661.768 121.8C674.435 121.8 684.168 125.267 690.968 132.2C697.901 139.133 701.368 148.933 701.368 161.6V214H694.968V161.6C694.968 150.667 692.035 142.267 686.168 136.4C680.435 130.4 672.301 127.4 661.768 127.4C655.368 127.4 649.501 128.933 644.168 132C638.835 134.933 634.635 139.067 631.568 144.4C628.501 149.6 626.968 155.333 626.968 161.6V214H620.568V64ZM967.568 64V214H960.968V73.6L890.168 216.8L819.768 71.8V214H813.168V64H822.568L890.168 203.2L958.368 64H967.568ZM1059.72 210.8C1066.65 210.8 1073.25 209 1079.52 205.4C1085.79 201.8 1090.99 196.867 1095.12 190.6V200.8C1090.19 206.267 1084.79 210.267 1078.92 212.8C1073.05 215.2 1066.39 216.4 1058.92 216.4C1050.65 216.4 1042.85 214.2 1035.52 209.8C1028.32 205.4 1022.52 199.533 1018.12 192.2C1013.85 184.867 1011.72 177.067 1011.72 168.8C1011.72 159.867 1013.85 151.867 1018.12 144.8C1022.39 137.6 1028.19 132 1035.52 128C1042.99 124 1051.25 122 1060.32 122C1074.19 122 1085.99 127.467 1095.72 138.4L1032.92 200.4C1037.32 204 1041.59 206.667 1045.72 208.4C1049.85 210 1054.52 210.8 1059.72 210.8ZM1018.12 168.2C1018.12 179.267 1021.79 188.733 1029.12 196.6L1087.72 138.4C1083.32 134.533 1079.05 131.8 1074.92 130.2C1070.79 128.467 1065.85 127.6 1060.12 127.6C1051.99 127.6 1044.72 129.4 1038.32 133C1032.05 136.467 1027.12 141.267 1023.52 147.4C1019.92 153.533 1018.12 160.467 1018.12 168.2Z" fill="#F2FAFF"/>
</svg>
