<svg width="23" height="68" viewBox="0 0 23 68" fill="none" xmlns="http://www.w3.org/2000/svg">
<path d="M7.32595 21.1134C6.43795 21.1134 5.69995 20.8434 5.11195 20.3034C4.53595 19.7634 4.24795 19.0194 4.24795 18.0714V9.64737H4.82395V12.9054H7.30795V13.4094H4.82395V18.0714C4.82395 18.8634 5.05795 19.4874 5.52595 19.9434C6.00595 20.3874 6.60595 20.6094 7.32595 20.6094V21.1134ZM5.53776 42.2934C4.72176 42.2934 3.98376 42.0954 3.32376 41.6994C2.66376 41.2914 2.14776 40.7574 1.77576 40.0974C1.40376 39.4254 1.21776 38.6994 1.21776 37.9194C1.21776 37.1514 1.40376 36.4374 1.77576 35.7774C2.15976 35.1174 2.67576 34.5954 3.32376 34.2114C3.98376 33.8154 4.71576 33.6174 5.51976 33.6174C6.31176 33.6174 7.03176 33.8154 7.67976 34.2114C8.33976 34.5954 8.85576 35.1174 9.22776 35.7774C9.59976 36.4374 9.78576 37.1514 9.78576 37.9194C9.78576 38.7234 9.60576 39.4614 9.24576 40.1334C8.88576 40.7934 8.38176 41.3214 7.73376 41.7174C7.09776 42.1014 6.36576 42.2934 5.53776 42.2934ZM5.53776 41.7894C6.22176 41.7894 6.84576 41.6154 7.40976 41.2674C7.97376 40.9194 8.41176 40.4574 8.72376 39.8814C9.04776 39.2934 9.20976 38.6514 9.20976 37.9554C9.20976 37.2714 9.04776 36.6354 8.72376 36.0474C8.39976 35.4594 7.95576 34.9914 7.39176 34.6434C6.82776 34.2954 6.20376 34.1214 5.51976 34.1214C4.83576 34.1214 4.20576 34.3014 3.62976 34.6614C3.06576 35.0094 2.61576 35.4774 2.27976 36.0654C1.95576 36.6534 1.79376 37.2894 1.79376 37.9734C1.79376 38.6574 1.95576 39.2934 2.27976 39.8814C2.61576 40.4574 3.06576 40.9194 3.62976 41.2674C4.20576 41.6154 4.84176 41.7894 5.53776 41.7894ZM1.46603 54.9054H2.04203V56.8854C2.36603 56.2374 2.87003 55.7154 3.55403 55.3194C4.23803 54.9114 4.95803 54.7074 5.71403 54.7074C6.49403 54.7074 7.20803 54.8994 7.85603 55.2834C8.51603 55.6674 9.03803 56.1834 9.42203 56.8314C9.80603 57.4794 9.99803 58.1874 9.99803 58.9554C9.99803 59.7234 9.80603 60.4314 9.42203 61.0794C9.03803 61.7274 8.51603 62.2434 7.85603 62.6274C7.20803 63.0114 6.49403 63.2034 5.71403 63.2034C4.98203 63.2034 4.27403 63.0054 3.59003 62.6094C2.91803 62.2134 2.40203 61.6914 2.04203 61.0434V66.6054H1.46603V54.9054ZM5.75003 62.6994C6.41003 62.6994 7.02203 62.5314 7.58603 62.1954C8.15003 61.8474 8.59403 61.3914 8.91803 60.8274C9.25403 60.2514 9.42203 59.6274 9.42203 58.9554C9.42203 58.2954 9.25403 57.6774 8.91803 57.1014C8.58203 56.5254 8.13203 56.0694 7.56803 55.7334C7.00403 55.3854 6.39203 55.2114 5.73203 55.2114C5.07203 55.2114 4.45403 55.3854 3.87803 55.7334C3.31403 56.0814 2.85803 56.5434 2.51003 57.1194C2.17403 57.6954 2.00603 58.3134 2.00603 58.9734C2.00603 59.6334 2.17403 60.2514 2.51003 60.8274C2.85803 61.3914 3.32003 61.8474 3.89603 62.1954C4.47203 62.5314 5.09003 62.6994 5.75003 62.6994Z" fill="#616568"/>
<path d="M19.7475 0.748606C19.6108 0.611923 19.3892 0.611923 19.2525 0.748606L17.0251 2.97599C16.8884 3.11268 16.8884 3.33428 17.0251 3.47097C17.1618 3.60765 17.3834 3.60765 17.5201 3.47097L19.5 1.49107L21.4799 3.47097C21.6166 3.60765 21.8382 3.60765 21.9749 3.47097C22.1116 3.33428 22.1116 3.11268 21.9749 2.97599L19.7475 0.748606ZM19.15 0.996094L19.15 67.0037H19.85L19.85 0.996094H19.15Z" fill="#616568"/>
</svg>
