<svg width="121" height="123" viewBox="0 0 121 123" fill="none" xmlns="http://www.w3.org/2000/svg">
<path d="M92.7262 65.1681C92.6961 63.7759 92.2427 62.4306 91.43 61.3215C90.6172 60.2125 89.4859 59.3955 88.1954 58.9856L83.2417 57.4043L87.8576 42.2837L85.6821 41.9259C80.7472 41.1141 76.3152 42.4081 72.5101 45.7723C69.7669 48.1973 67.9056 51.2442 66.7544 53.5999C63.3776 54.8893 60.106 57.1046 57.0179 60.1946C54.4155 62.7983 51.9324 66.0311 49.6372 69.8031C45.7592 76.1765 43.7647 81.8533 43.6817 82.0918L41.6484 88.7495L45.2955 89.9137L47.2923 83.3726C47.6333 82.4194 55.2465 61.6093 68.7145 57.0592L69.504 56.7924L69.857 56.0173C71.6845 52.0039 75.6932 45.6913 82.831 45.6362L78.4455 60.0021L87.0469 62.7479C87.5748 62.9146 88.0378 63.2479 88.3708 63.7008C88.7038 64.1537 88.89 64.7034 88.9033 65.2726C89.0059 70.164 89.8134 76.5017 92.9127 80.3483L90.3588 84.5043C89.458 85.9895 88.0958 87.1184 86.4951 87.706C84.8944 88.2937 83.1501 88.3053 81.5477 87.739C78.3107 86.5947 74.7752 85.9486 71.0392 85.818L69.5795 85.7669L66.2696 96.6094L69.9173 97.7738L72.3411 89.834C75.0493 90.0244 77.7208 90.5724 80.29 91.4645C82.7073 92.3122 85.3357 92.2929 87.7492 91.4097C90.1627 90.5266 92.2198 88.8312 93.587 86.5986L97.8348 79.6864L96.5799 78.5821C94.233 76.5168 92.8645 71.753 92.7262 65.1681Z" fill="#616568"/>
<path d="M67.1257 99.9201C60.4057 99.9201 54.2297 98.2881 48.5977 95.0241C42.9657 91.6961 38.4857 87.1521 35.1577 81.3921C31.8937 75.5681 30.2617 69.0401 30.2617 61.8081C30.2617 54.8321 31.9577 48.4641 35.3497 42.7041C38.8057 36.9441 43.3817 32.4001 49.0777 29.0721C54.8377 25.7441 60.9497 24.0801 67.4137 24.0801C71.8937 24.0801 75.4457 24.4961 78.0697 25.3281C80.6937 26.0961 83.7337 27.4721 87.1897 29.4561V33.0081C83.9257 30.7681 80.8857 29.2001 78.0697 28.3041C75.3177 27.3441 71.8617 26.8641 67.7017 26.8641C61.3657 26.8641 55.5737 28.4961 50.3257 31.7601C45.1417 34.9601 41.0137 39.2801 37.9417 44.7201C34.9337 50.0961 33.4297 55.8881 33.4297 62.0961C33.4297 68.3681 34.9657 74.1921 38.0377 79.5681C41.1097 84.9441 45.1737 89.2321 50.2297 92.4321C55.3497 95.5681 60.8537 97.1361 66.7417 97.1361C70.9657 97.1361 74.6457 96.6561 77.7817 95.6961C80.9177 94.6721 84.0537 93.1041 87.1897 90.9921V94.5441C84.1177 96.4001 80.9497 97.7441 77.6857 98.5761C74.4857 99.4721 70.9657 99.9201 67.1257 99.9201Z" fill="#616568"/>
</svg>
