<svg width="133" height="123" viewBox="0 0 133 123" fill="none" xmlns="http://www.w3.org/2000/svg">
<path d="M92.7266 66.1681C92.6964 64.7758 92.2431 63.4305 91.4303 62.3215C90.6175 61.2124 89.4863 60.3955 88.1957 59.9856L83.2421 58.4042L87.8579 43.2837L85.6825 42.9258C80.7476 42.114 76.3155 43.408 72.5104 46.7723C69.7672 49.1972 67.906 52.2441 66.7547 54.5999C63.3779 55.8893 60.1064 58.1045 57.0182 61.1946C54.4159 63.7983 51.9327 67.031 49.6375 70.8031C45.7595 77.1765 43.765 82.8532 43.6821 83.0918L41.6487 89.7494L45.2958 90.9137L47.2926 84.3725C47.6336 83.4193 55.2468 62.6093 68.7149 58.0592L69.5044 57.7924L69.8573 57.0172C71.6848 53.0039 75.6935 46.6913 82.8313 46.6362L78.4459 61.002L87.0472 63.7478C87.5751 63.9146 88.0381 64.2478 88.3711 64.7007C88.7042 65.1536 88.8904 65.7033 88.9036 66.2725C89.0063 71.164 89.8137 77.5017 92.9131 81.3483L90.3591 85.5042C89.4584 86.9895 88.0961 88.1183 86.4955 88.706C84.8948 89.2936 83.1505 89.3052 81.548 88.7389C78.311 87.5946 74.7755 86.9486 71.0396 86.8179L69.5799 86.7668L66.27 97.6093L69.9177 98.7737L72.3415 90.834C75.0496 91.0244 77.7211 91.5724 80.2904 92.4644C82.7077 93.3122 85.3361 93.2929 87.7496 92.4097C90.1631 91.5265 92.2201 89.8312 93.5873 87.5986L97.8351 80.6863L96.5802 79.582C94.2334 77.5167 92.8649 72.7529 92.7266 66.1681Z" fill="#F2FAFF"/>
<path d="M67.126 99.92C60.406 99.92 54.23 98.288 48.598 95.024C42.966 91.696 38.486 87.152 35.158 81.392C31.894 75.568 30.262 69.04 30.262 61.808C30.262 54.832 31.958 48.464 35.35 42.704C38.806 36.944 43.382 32.4 49.078 29.072C54.838 25.744 60.95 24.08 67.414 24.08C71.894 24.08 75.446 24.496 78.07 25.328C80.694 26.096 83.734 27.472 87.19 29.456V33.008C83.926 30.768 80.886 29.2 78.07 28.304C75.318 27.344 71.862 26.864 67.702 26.864C61.366 26.864 55.574 28.496 50.326 31.76C45.142 34.96 41.014 39.28 37.942 44.72C34.934 50.096 33.43 55.888 33.43 62.096C33.43 68.368 34.966 74.192 38.038 79.568C41.11 84.944 45.174 89.232 50.23 92.432C55.35 95.568 60.854 97.136 66.742 97.136C70.966 97.136 74.646 96.656 77.782 95.696C80.918 94.672 84.054 93.104 87.19 90.992V94.544C84.118 96.4 80.95 97.744 77.686 98.576C74.486 99.472 70.966 99.92 67.126 99.92Z" fill="#F2FAFF"/>
</svg>
