<svg width="32" height="32" viewBox="0 0 32 32" fill="none" xmlns="http://www.w3.org/2000/svg">
<path d="M32 16C32 12.8355 31.0616 9.74207 29.3035 7.11088C27.5454 4.4797 25.0466 2.42894 22.1229 1.21793C19.1993 0.0069323 15.9823 -0.309921 12.8786 0.307443C9.77486 0.924806 6.92394 2.44866 4.6863 4.6863C2.44866 6.92394 0.924806 9.77486 0.307443 12.8786C-0.309921 15.9823 0.0069323 19.1993 1.21793 22.1229C2.42894 25.0466 4.4797 27.5454 7.11088 29.3035C9.74207 31.0616 12.8355 32 16 32C20.2409 31.9915 24.3056 30.3031 27.3044 27.3044C30.3031 24.3056 31.9915 20.2409 32 16ZM16.64 30.704V19.2H21.12C21.2897 19.2 21.4525 19.1326 21.5726 19.0126C21.6926 18.8925 21.76 18.7297 21.76 18.56C21.76 18.3903 21.6926 18.2275 21.5726 18.1075C21.4525 17.9874 21.2897 17.92 21.12 17.92H16.64V13.44C16.6442 12.5926 16.9827 11.7811 17.5819 11.1819C18.1811 10.5827 18.9926 10.2442 19.84 10.24H22.4C22.5697 10.24 22.7325 10.1726 22.8526 10.0526C22.9726 9.93253 23.04 9.76974 23.04 9.60001C23.04 9.43027 22.9726 9.26748 22.8526 9.14746C22.7325 9.02743 22.5697 8.96001 22.4 8.96001H19.84C18.6531 8.96422 17.5161 9.43757 16.6768 10.2768C15.8376 11.1161 15.3642 12.2531 15.36 13.44V17.92H10.88C10.7103 17.92 10.5475 17.9874 10.4275 18.1075C10.3074 18.2275 10.24 18.3903 10.24 18.56C10.24 18.7297 10.3074 18.8925 10.4275 19.0126C10.5475 19.1326 10.7103 19.2 10.88 19.2H15.36V30.704C11.5151 30.5367 7.88861 28.8702 5.25747 26.0615C2.62633 23.2529 1.1998 19.5255 1.28349 15.6778C1.36717 11.8302 2.95441 8.16835 5.70518 5.47676C8.45595 2.78517 12.1514 1.27793 16 1.27793C19.8486 1.27793 23.5441 2.78517 26.2948 5.47676C29.0456 8.16835 30.6328 11.8302 30.7165 15.6778C30.8002 19.5255 29.3737 23.2529 26.7425 26.0615C24.1114 28.8702 20.4849 30.5367 16.64 30.704Z" fill="white"/>
</svg>
