<svg width="734" height="173" viewBox="0 0 734 173" fill="none" xmlns="http://www.w3.org/2000/svg">
<path d="M138.423 88.2325C138.38 86.2741 137.743 84.3817 136.6 82.8216C135.457 81.2614 133.867 80.1127 132.052 79.5358L125.087 77.3117L131.577 56.0423L128.518 55.539C121.58 54.3971 115.348 56.2173 109.998 60.9496C106.141 64.3603 103.524 68.6468 101.905 71.9599C97.1573 73.7739 92.5573 76.8898 88.2155 81.2366C84.5567 84.8988 81.0653 89.4466 77.8382 94.7523C72.3854 103.717 69.5813 111.703 69.4643 112.038L66.6055 121.403L71.7335 123.041L74.5408 113.84C75.0203 112.499 85.7249 83.2267 104.662 76.8263L105.771 76.451L106.268 75.3608C108.837 69.7153 114.473 60.8356 124.509 60.7581L118.344 80.9658L130.437 84.8279C131.179 85.0625 131.831 85.5317 132.299 86.1683C132.767 86.8055 133.029 87.5791 133.047 88.3793C133.192 95.2601 134.327 104.175 138.685 109.586L135.094 115.431C133.827 117.52 131.912 119.109 129.662 119.935C127.411 120.762 124.958 120.778 122.705 119.982C118.154 118.372 113.183 117.463 107.93 117.28L105.878 117.207L101.224 132.459L106.353 134.097L109.76 122.928C113.568 123.197 117.324 123.968 120.937 125.222C124.336 126.414 128.031 126.388 131.425 125.145C134.818 123.903 137.711 121.518 139.633 118.377L145.606 108.655L143.841 107.101C140.541 104.196 138.617 97.4948 138.423 88.2325Z" fill="#616568"/>
<path d="M101.389 135.662C92.6809 135.662 84.6771 133.546 77.3788 129.314C70.0805 125 64.2744 119.109 59.9619 111.641C55.7321 104.091 53.6172 95.6273 53.6172 86.2511C53.6172 77.2072 55.8151 68.9511 60.2107 61.4835C64.6893 54.0158 70.6192 48.1247 78.0009 43.8101C85.4653 39.4955 93.3856 37.3381 101.763 37.3381C107.568 37.3381 112.171 37.8775 115.572 38.9561C118.972 39.9518 122.912 41.7358 127.39 44.3079V48.913C123.161 46.0089 119.221 43.976 115.572 42.8144C112.006 41.5698 107.527 40.9475 102.136 40.9475C93.9249 40.9475 86.4188 43.0633 79.6181 47.295C72.9002 51.4437 67.5507 57.0444 63.5697 64.0971C59.6717 71.0669 57.7226 78.5762 57.7226 86.6245C57.7226 94.7561 59.7131 102.306 63.6941 109.276C67.6751 116.246 72.9419 121.805 79.4937 125.954C86.129 130.019 93.2612 132.052 100.892 132.052C106.366 132.052 111.135 131.43 115.198 130.186C119.262 128.858 123.327 126.825 127.39 124.087V128.692C123.409 131.099 119.304 132.841 115.074 133.919C110.927 135.081 106.366 135.662 101.389 135.662ZM244.846 133.173H240.492L222.826 97.577H173.312L156.019 133.173H151.665L198.193 37.5871L244.846 133.173ZM221.333 93.9676L197.945 46.5482L175.054 93.9676H221.333ZM275.5 43.4367H253.977V39.8273H300.879V43.4367H279.605V133.173H275.5V43.4367ZM340.418 134.791C335.026 134.791 330.05 133.504 325.489 130.932C321.01 128.36 317.444 124.834 314.79 120.353C312.136 115.873 310.809 110.811 310.809 105.169C310.809 99.9417 312.136 95.1295 314.79 90.7316C317.444 86.2511 321.052 82.6834 325.613 80.0281C330.258 77.3727 335.359 76.0453 340.915 76.0453C345.56 76.0453 349.541 76.7921 352.858 78.2856C356.176 79.7791 359.41 82.1022 362.562 85.2554V91.9763C359.825 87.9108 356.757 84.8403 353.356 82.7662C350.039 80.6087 345.892 79.5302 340.915 79.5302C336.354 79.5302 332.041 80.7331 327.977 83.1396C323.996 85.4626 320.803 88.6158 318.398 92.5986C315.992 96.5813 314.79 100.855 314.79 105.418C314.79 110.396 315.951 114.877 318.273 118.86C320.595 122.76 323.705 125.829 327.604 128.07C331.585 130.227 335.856 131.306 340.418 131.306C349.706 131.306 357.088 127.116 362.562 118.735V125.456C359.576 128.609 356.259 130.974 352.609 132.55C349.043 134.044 344.979 134.791 340.418 134.791ZM386.015 39.8273H389.996V88.7403C391.737 85.0065 394.681 81.9367 398.828 79.5302C403.058 77.041 407.33 75.7964 411.642 75.7964C419.522 75.7964 425.576 77.9539 429.806 82.2683C434.118 86.5828 436.275 92.6813 436.275 100.564V133.173H432.294V100.564C432.294 93.7604 430.469 88.5331 426.82 84.882C423.254 81.1482 418.194 79.2813 411.642 79.2813C407.661 79.2813 404.012 80.2353 400.695 82.1439C397.377 83.9691 394.765 86.5417 392.857 89.8604C390.949 93.0964 389.996 96.6641 389.996 100.564V133.173H386.015V39.8273ZM601.86 39.8273V133.173H597.755V45.8014L553.715 134.915L509.924 44.6813V133.173H505.818V39.8273H511.665L553.715 126.452L596.138 39.8273H601.86ZM659.182 131.181C663.493 131.181 667.598 130.061 671.498 127.821C675.398 125.581 678.633 122.511 681.202 118.611V124.958C678.135 128.36 674.776 130.85 671.125 132.426C667.474 133.919 663.331 134.666 658.684 134.666C653.54 134.666 648.688 133.297 644.129 130.559C639.65 127.821 636.042 124.17 633.305 119.606C630.649 115.043 629.324 110.189 629.324 105.045C629.324 99.4856 630.649 94.5072 633.305 90.1093C635.961 85.6288 639.569 82.1439 644.129 79.6547C648.775 77.1655 653.913 75.9209 659.555 75.9209C668.183 75.9209 675.523 79.323 681.575 86.1266L642.512 124.709C645.248 126.95 647.904 128.609 650.474 129.688C653.042 130.683 655.947 131.181 659.182 131.181ZM633.305 104.671C633.305 111.558 635.588 117.449 640.148 122.345L676.599 86.1266C673.862 83.7202 671.206 82.0194 668.637 81.0237C666.068 79.9453 662.995 79.4058 659.431 79.4058C654.374 79.4058 649.851 80.5259 645.87 82.7662C641.97 84.9237 638.904 87.9107 636.664 91.7273C634.425 95.5439 633.305 99.8589 633.305 104.671Z" fill="#616568"/>
</svg>
