<svg width="32" height="32" viewBox="0 0 32 32" fill="none" xmlns="http://www.w3.org/2000/svg">
<path d="M16 8.66667C14.5496 8.66667 13.1318 9.09676 11.9258 9.90256C10.7199 10.7084 9.77993 11.8537 9.22488 13.1937C8.66984 14.5336 8.52462 16.0081 8.80758 17.4307C9.09053 18.8532 9.78897 20.1599 10.8146 21.1855C11.8401 22.211 13.1468 22.9095 14.5693 23.1924C15.9919 23.4754 17.4664 23.3302 18.8063 22.7751C20.1463 22.2201 21.2916 21.2801 22.0974 20.0742C22.9032 18.8682 23.3333 17.4504 23.3333 16C23.3333 14.0551 22.5607 12.1898 21.1855 10.8146C19.8102 9.43928 17.9449 8.66667 16 8.66667ZM16 22C14.8133 22 13.6533 21.6481 12.6666 20.9888C11.6799 20.3295 10.9108 19.3925 10.4567 18.2961C10.0026 17.1997 9.88378 15.9933 10.1153 14.8295C10.3468 13.6656 10.9182 12.5965 11.7574 11.7574C12.5965 10.9182 13.6656 10.3468 14.8295 10.1153C15.9933 9.88378 17.1997 10.0026 18.2961 10.4567C19.3925 10.9108 20.3295 11.6799 20.9888 12.6666C21.6481 13.6533 22 14.8133 22 16C22 17.5913 21.3679 19.1174 20.2426 20.2426C19.1174 21.3679 17.5913 22 16 22ZM23.3333 0H8.66667C6.36812 0 4.16372 0.913092 2.53841 2.53841C0.913092 4.16372 0 6.36812 0 8.66667V23.3333C0 24.4715 0.22417 25.5984 0.659711 26.6499C1.09525 27.7014 1.73363 28.6568 2.53841 29.4616C4.16372 31.0869 6.36812 32 8.66667 32H23.3333C24.4715 32 25.5984 31.7758 26.6499 31.3403C27.7014 30.9047 28.6568 30.2664 29.4616 29.4616C30.2664 28.6568 30.9047 27.7014 31.3403 26.6499C31.7758 25.5984 32 24.4715 32 23.3333V8.66667C32 7.52854 31.7758 6.40157 31.3403 5.35008C30.9047 4.29859 30.2664 3.34318 29.4616 2.53841C28.6568 1.73363 27.7014 1.09525 26.6499 0.659711C25.5984 0.22417 24.4715 0 23.3333 0ZM30.6667 23.3333C30.6667 25.2783 29.8941 27.1435 28.5188 28.5188C27.1435 29.8941 25.2783 30.6667 23.3333 30.6667H8.66667C6.72175 30.6667 4.85648 29.8941 3.48122 28.5188C2.10595 27.1435 1.33333 25.2783 1.33333 23.3333V8.66667C1.33333 6.72175 2.10595 4.85648 3.48122 3.48122C4.85648 2.10595 6.72175 1.33333 8.66667 1.33333H23.3333C25.2783 1.33333 27.1435 2.10595 28.5188 3.48122C29.8941 4.85648 30.6667 6.72175 30.6667 8.66667V23.3333ZM26 7.33333C26 7.59704 25.9218 7.85483 25.7753 8.07409C25.6288 8.29336 25.4205 8.46426 25.1769 8.56517C24.9333 8.66609 24.6652 8.69249 24.4065 8.64105C24.1479 8.5896 23.9103 8.46261 23.7239 8.27614C23.5374 8.08967 23.4104 7.8521 23.359 7.59345C23.3075 7.33481 23.3339 7.06672 23.4348 6.82309C23.5357 6.57945 23.7066 6.37122 23.9259 6.22471C24.1452 6.0782 24.403 6 24.6667 6C25.0203 6 25.3594 6.14048 25.6095 6.39052C25.8595 6.64057 26 6.97971 26 7.33333Z" fill="white"/>
</svg>
